<svg width="26" height="27" viewBox="0 0 26 27" fill="none" xmlns="http://www.w3.org/2000/svg">
<path d="M23.2213 21.2139C22.5824 20.5784 21.9606 19.9247 21.3566 19.2535C20.8491 18.7181 20.5435 18.3286 20.5435 18.3286L16.724 16.4348C18.2532 14.634 19.0971 12.3158 19.0976 9.91501C19.0976 4.44901 14.8143 0 9.54879 0C4.28332 0 0 4.44901 0 9.91501C0 15.381 4.28332 19.83 9.54879 19.83C11.9537 19.83 14.1459 18.8952 15.8278 17.3669L17.6516 21.3329C17.6516 21.3329 18.0268 21.6501 18.5424 22.1771C19.0703 22.6912 19.7646 23.3867 20.4303 24.1133L22.2828 26.085L23.1067 27L26 23.9958L25.1188 23.1402C24.6018 22.6133 23.9115 21.9136 23.2213 21.2139ZM9.54879 16.9972C5.78793 16.9972 2.72823 13.8201 2.72823 9.91501C2.72823 6.00991 5.78793 2.83286 9.54879 2.83286C13.3097 2.83286 16.3694 6.00991 16.3694 9.91501C16.3694 13.8201 13.3097 16.9972 9.54879 16.9972Z" fill="#222222"/>
</svg>
